<svg width="254" height="26" viewBox="0 0 254 26" fill="none" xmlns="http://www.w3.org/2000/svg">
<g id="payment icon">
<g id="AmericanExpress-light">
<rect id="Rectangle" x="211" width="43" height="25.0498" rx="4" fill="white"/>
<path id="EXPRESS" fill-rule="evenodd" clip-rule="evenodd" d="M247.295 14.4728H245.776C245.624 14.4728 245.523 14.4783 245.439 14.5338C245.351 14.5885 245.317 14.6696 245.317 14.7767C245.317 14.9041 245.391 14.9908 245.499 15.0282C245.587 15.0579 245.681 15.0665 245.82 15.0665L246.272 15.0782C246.728 15.0891 247.032 15.165 247.218 15.35C247.252 15.3758 247.272 15.4047 247.295 15.4336V14.4728ZM247.295 16.6989C247.093 16.9855 246.698 17.1308 246.164 17.1308H244.554V16.4068H246.157C246.317 16.4068 246.428 16.3865 246.495 16.3232C246.553 16.2709 246.593 16.1951 246.593 16.1029C246.593 16.0046 246.553 15.9265 246.492 15.8796C246.431 15.8281 246.343 15.8047 246.198 15.8047C245.415 15.7789 244.439 15.8281 244.439 14.7596C244.439 14.2698 244.76 13.7543 245.635 13.7543H247.295V13.0825H245.752C245.287 13.0825 244.949 13.1904 244.709 13.3582V13.0825H242.427C242.062 13.0825 241.634 13.1701 241.432 13.3582V13.0825H237.357V13.3582C237.033 13.1318 236.485 13.0825 236.233 13.0825H233.545V13.3582C233.289 13.1177 232.718 13.0825 232.37 13.0825H229.362L228.674 13.8036L228.029 13.0825H223.536V17.794H227.945L228.654 17.0615L229.322 17.794L232.04 17.7963V16.688H232.307C232.667 16.6934 233.093 16.6793 233.468 16.5223V17.7939H235.709V16.5659H235.818C235.956 16.5659 235.969 16.5714 235.969 16.7049V17.7937H242.778C243.211 17.7937 243.663 17.6866 243.913 17.4923V17.7937H246.073C246.522 17.7937 246.961 17.7328 247.295 17.5766V16.6989ZM243.97 15.35C244.132 15.5126 244.219 15.7179 244.219 16.0654C244.219 16.7918 243.751 17.1308 242.91 17.1308H241.286V16.4068H242.903C243.061 16.4068 243.174 16.3865 243.244 16.3232C243.301 16.2709 243.342 16.1951 243.342 16.1029C243.342 16.0046 243.298 15.9265 243.241 15.8796C243.177 15.8281 243.089 15.8047 242.944 15.8047C242.164 15.7789 241.188 15.8281 241.188 14.7596C241.188 14.2699 241.506 13.7543 242.38 13.7543H244.051V14.473H242.522C242.37 14.473 242.272 14.4785 242.188 14.534C242.096 14.5887 242.063 14.6698 242.063 14.7769C242.063 14.9043 242.14 14.991 242.245 15.0284C242.333 15.0581 242.427 15.0667 242.569 15.0667L243.018 15.0784C243.471 15.0891 243.781 15.1649 243.97 15.35ZM236.448 15.1415C236.337 15.2055 236.199 15.211 236.037 15.211H235.024V14.4526H236.051C236.199 14.4526 236.348 14.4557 236.448 14.5136C236.557 14.5683 236.621 14.6729 236.621 14.8173C236.621 14.9618 236.557 15.0782 236.448 15.1415ZM236.952 15.5617C237.137 15.628 237.289 15.7468 237.36 15.8451C237.478 16.01 237.495 16.1638 237.498 16.4615V17.1308H236.661V16.7084C236.661 16.5052 236.682 16.2045 236.527 16.0475C236.405 15.9265 236.219 15.8976 235.915 15.8976H235.024V17.1308H234.187V13.7542H236.111C236.533 13.7542 236.841 13.7723 237.114 13.9136C237.377 14.0674 237.543 14.2782 237.543 14.6634C237.543 15.2023 237.171 15.4774 236.952 15.5617ZM238.005 13.7542H240.787V14.4525H238.835V15.0664H240.739V15.7553H238.835V16.4271L240.787 16.4302V17.1308H238.005V13.7542ZM232.381 15.3125H231.304V14.4526H232.391C232.691 14.4526 232.9 14.5713 232.9 14.8666C232.9 15.1586 232.701 15.3125 232.381 15.3125ZM230.473 16.8237L229.194 15.4483L230.473 14.1166V16.8237ZM227.168 16.4271H225.119V15.7553H226.949V15.0664H225.119V14.4525H227.209L228.12 15.4365L227.168 16.4271ZM233.795 14.8666C233.795 15.8046 233.072 15.9983 232.344 15.9983H231.304V17.1308H229.683L228.657 16.013L227.59 17.1308H224.289V13.7542H227.641L228.667 14.861L229.727 13.7542H232.391C233.052 13.7542 233.795 13.9315 233.795 14.8666Z" fill="#0072CE"/>
<path id="AMERICAN" fill-rule="evenodd" clip-rule="evenodd" d="M220.312 9.86313L219.741 8.5174L219.174 9.86313H220.312ZM232.88 9.32725C232.766 9.39455 232.63 9.39679 232.468 9.39679H231.455V8.647H232.482C232.627 8.647 232.779 8.65332 232.877 8.70789C232.985 8.75707 233.052 8.86174 233.052 9.00632C233.052 9.15385 232.988 9.27257 232.88 9.32725ZM240.104 9.86313L239.527 8.5174L238.954 9.86313H240.104ZM226.638 11.3198H225.784L225.781 8.67589L224.572 11.3198H223.84L222.628 8.67355V11.3198H220.933L220.613 10.5668H218.877L218.553 11.3198H217.648L219.141 7.944H220.379L221.797 11.1402V7.944H223.157L224.248 10.2341L225.25 7.944H226.638V11.3198H226.638ZM230.044 11.3198H227.26V7.944H230.044V8.64698H228.093V9.25546H229.997V9.94744H228.093V10.6216H230.044V11.3198ZM233.97 8.85317C233.97 9.39139 233.599 9.66947 233.383 9.75296C233.565 9.82017 233.721 9.93889 233.795 10.0372C233.913 10.2052 233.933 10.3551 233.933 10.6566V11.3198H233.093L233.089 10.8941C233.089 10.6909 233.109 10.3988 232.958 10.2364C232.836 10.1177 232.65 10.0919 232.35 10.0919H231.455V11.3198H230.622V7.944H232.539C232.965 7.944 233.279 7.9549 233.549 8.10569C233.812 8.25649 233.97 8.47663 233.97 8.85317ZM235.304 11.3198H234.454V7.944H235.304V11.3198ZM245.172 11.3198H243.99L242.41 8.78606V11.3198H240.713L240.388 10.5668H238.657L238.342 11.3198H237.367C236.962 11.3198 236.449 11.233 236.158 10.9464C235.865 10.6598 235.713 10.2715 235.713 9.65766C235.713 9.157 235.804 8.69931 236.162 8.33764C236.431 8.06822 236.853 7.944 237.428 7.944H238.235V8.66734H237.445C237.141 8.66734 236.969 8.71112 236.803 8.86732C236.661 9.00946 236.564 9.27817 236.564 9.632C236.564 9.99367 236.638 10.2544 236.793 10.4248C236.921 10.5584 237.155 10.5989 237.374 10.5989H237.748L238.923 7.9441H240.172L241.583 11.1371V7.9441H242.853L244.318 10.2952V7.9441H245.172V11.3198ZM217.638 11.9829H219.063L219.384 11.2331H220.103L220.423 11.9829H223.225V11.4096L223.475 11.9853H224.93L225.18 11.4011V11.9829H232.144L232.141 10.7521H232.276C232.37 10.7552 232.398 10.7637 232.398 10.9145V11.9829H236V11.6964C236.29 11.847 236.742 11.9829 237.337 11.9829H238.852L239.176 11.2331H239.895L240.212 11.9829H243.132V11.2706L243.575 11.9829H245.915V7.27466H243.599V7.8307L243.275 7.27466H240.898V7.8307L240.601 7.27466H237.391C236.854 7.27466 236.381 7.34726 236 7.54958V7.27466H233.785V7.54958C233.542 7.34105 233.211 7.27466 232.843 7.27466H224.751L224.208 8.49071L223.65 7.27466H221.102V7.8307L220.822 7.27466H218.648L217.638 9.5132V11.9829H217.638Z" fill="#0072CE"/>
</g>
<g id="Cirrus-light">
<rect id="Rectangle_2" x="158" width="43" height="25.0498" rx="4" fill="white"/>
<path id="Fill 374" fill-rule="evenodd" clip-rule="evenodd" d="M182.516 12.5251C182.516 17.0849 178.684 20.781 173.957 20.781C169.23 20.781 165.398 17.0849 165.398 12.5251C165.398 7.96595 169.23 4.26953 173.957 4.26953C178.684 4.26953 182.516 7.96595 182.516 12.5251Z" fill="#333399"/>
<path id="Fill 375" fill-rule="evenodd" clip-rule="evenodd" d="M185.448 4.26953C183.237 4.26953 181.222 5.07882 179.702 6.40646C179.393 6.67679 179.104 6.9693 178.838 7.28021H180.567C180.804 7.55745 181.022 7.84892 181.22 8.15447H178.186C178.004 8.43524 177.839 8.72683 177.693 9.02874H181.713C181.85 9.31185 181.971 9.60332 182.075 9.90248H177.33C177.231 10.1877 177.148 10.4791 177.082 10.7769H182.324C182.45 11.3405 182.516 11.9253 182.516 12.5251C182.516 13.4419 182.361 14.3239 182.075 15.1478H177.33C177.434 15.4471 177.555 15.739 177.693 16.0221H181.713C181.566 16.3237 181.402 16.6156 181.219 16.8963H178.186C178.384 17.2014 178.602 17.4934 178.838 17.7701H180.567C180.301 18.0815 180.012 18.374 179.703 18.6443C181.222 19.972 183.237 20.781 185.448 20.781C190.175 20.781 194.007 17.0849 194.007 12.5251C194.007 7.96595 190.175 4.26953 185.448 4.26953Z" fill="#0066CC"/>
<path id="Fill 376" fill-rule="evenodd" clip-rule="evenodd" d="M192.866 17.1269C192.866 16.9797 192.99 16.8606 193.143 16.8606C193.295 16.8606 193.419 16.9797 193.419 17.1269C193.419 17.2742 193.295 17.3937 193.143 17.3937C192.99 17.3937 192.866 17.2742 192.866 17.1269ZM193.142 17.3298C193.259 17.3298 193.353 17.2391 193.353 17.1269C193.353 17.0151 193.259 16.9247 193.142 16.9247C193.027 16.9247 192.933 17.0151 192.933 17.1269C192.933 17.2391 193.027 17.3298 193.142 17.3298ZM193.105 17.2439H193.049V17.01H193.151C193.173 17.01 193.194 17.01 193.213 17.0217C193.233 17.0346 193.244 17.0571 193.244 17.08C193.244 17.1068 193.228 17.1316 193.202 17.141L193.246 17.2439H193.184L193.147 17.1514H193.105V17.2439ZM193.105 17.1113H193.137C193.148 17.1113 193.161 17.1121 193.171 17.1068C193.18 17.1009 193.185 17.0902 193.185 17.0798C193.185 17.0709 193.18 17.0607 193.172 17.0559C193.162 17.0503 193.146 17.0517 193.136 17.0517H193.105V17.1113Z" fill="#0066CC"/>
<path id="Fill 377" fill-rule="evenodd" clip-rule="evenodd" d="M173.464 10.6351C173.387 10.9589 173.347 11.1423 173.244 11.5366C172.6 11.2733 171.737 11.1359 171.075 11.5348C170.45 11.9183 170.239 12.5168 170.285 13.1797C170.331 13.4987 170.579 13.8102 170.928 13.9454C171.534 14.1612 172.113 14.0823 172.756 13.765C172.665 14.1641 172.596 14.4775 172.516 14.7628C171.744 14.9708 171.011 15.0391 170.239 14.7916C169.55 14.5603 168.989 13.9615 168.943 13.3152C168.787 12.2775 169.302 11.2158 170.349 10.7285C171.323 10.3058 172.434 10.3792 173.464 10.6351Z" fill="#000066"/>
<path id="Fill 378" fill-rule="evenodd" clip-rule="evenodd" d="M184.37 14.3232C184.167 14.5197 183.821 14.9501 182.881 14.9501C182.025 14.9501 181.425 14.3413 181.729 12.9744C181.729 12.9742 182.083 11.3652 182.083 11.3652H183.389C183.389 11.3652 183.034 12.976 183.035 12.9744C182.914 13.5219 182.943 13.9385 183.519 13.9385C184.199 13.9385 184.402 13.5422 184.53 12.9744C184.529 12.9752 184.885 11.3652 184.885 11.3652H186.247L185.661 13.952C185.594 14.2555 185.531 14.5768 185.494 14.8937H184.268C184.268 14.8937 184.345 14.4628 184.37 14.3232Z" fill="#000066"/>
<path id="Fill 379" fill-rule="evenodd" clip-rule="evenodd" d="M186.681 12.4812C186.681 12.9287 186.985 13.2345 187.678 13.463C188.212 13.6431 188.296 13.696 188.296 13.8527C188.296 14.0759 188.057 14.1706 187.542 14.1706C187.15 14.1706 186.786 14.1329 186.364 14.0348C186.364 14.0348 186.199 14.7667 186.182 14.8502C186.548 14.9132 187.183 14.9502 187.551 14.9502C188.934 14.9502 189.575 14.5773 189.575 13.7728C189.575 13.2915 189.306 13.0081 188.65 12.791C188.097 12.6157 188.036 12.5753 188.036 12.4079C188.036 12.2205 188.255 12.1211 188.68 12.1211C188.935 12.1211 189.293 12.142 189.626 12.1756L189.81 11.3569C189.47 11.3179 188.953 11.2866 188.654 11.2866C187.186 11.2866 186.676 11.8316 186.681 12.4812Z" fill="#000066"/>
<path id="Fill 380" fill-rule="evenodd" clip-rule="evenodd" d="M173.962 11.3652H175.328L174.55 14.8937H173.183L173.962 11.3652Z" fill="#000066"/>
<path id="Fill 381" fill-rule="evenodd" clip-rule="evenodd" d="M181.768 11.3502C180.804 11.2274 180.529 11.6841 180.27 11.9111C180.301 11.7274 180.358 11.5482 180.347 11.3652H179.092C178.919 12.4579 178.613 13.5636 178.373 14.6562L178.31 14.8934H179.731C179.893 14.1769 180.082 13.0952 180.299 12.7677C180.516 12.4408 180.877 12.1794 181.352 12.3367L181.768 11.3502Z" fill="#000066"/>
<path id="Fill 382" fill-rule="evenodd" clip-rule="evenodd" d="M178.788 11.3502C177.825 11.2274 177.55 11.6841 177.291 11.9111C177.322 11.7274 177.379 11.5482 177.367 11.3652H176.112C175.94 12.4579 175.633 13.5636 175.394 14.6562L175.331 14.8934H176.752C176.914 14.1769 177.102 13.0952 177.32 12.7677C177.537 12.4408 177.898 12.1794 178.372 12.3367L178.788 11.3502Z" fill="#000066"/>
<path id="Fill 383" fill-rule="evenodd" clip-rule="evenodd" d="M189.994 14.3686C189.994 14.2213 190.118 14.1018 190.271 14.1018C190.423 14.1018 190.547 14.2213 190.547 14.3686C190.547 14.5159 190.423 14.6352 190.271 14.6352C190.118 14.6352 189.994 14.5159 189.994 14.3686ZM190.271 14.5712C190.387 14.5712 190.481 14.4804 190.481 14.3686C190.481 14.2567 190.387 14.166 190.271 14.166C190.155 14.166 190.06 14.2567 190.06 14.3686C190.06 14.4804 190.155 14.5712 190.271 14.5712ZM190.233 14.4855H190.177V14.251H190.279C190.3 14.251 190.322 14.2516 190.341 14.2633C190.361 14.2761 190.372 14.2988 190.372 14.3216C190.372 14.3482 190.356 14.3729 190.33 14.3823L190.375 14.4855H190.312L190.275 14.3927H190.233V14.4855ZM190.233 14.3526H190.265C190.276 14.3526 190.289 14.3536 190.299 14.3483C190.309 14.3426 190.313 14.3317 190.313 14.3215C190.313 14.3125 190.307 14.3021 190.3 14.2972C190.29 14.2919 190.274 14.2932 190.263 14.2932H190.233V14.3526Z" fill="white"/>
<path id="Fill 384" fill-rule="evenodd" clip-rule="evenodd" d="M173.731 10.3769C173.655 10.7011 173.615 10.8846 173.511 11.2785C172.868 11.0156 172.005 10.8782 171.343 11.2768C170.718 11.6602 170.507 12.2588 170.552 12.9216C170.598 13.2408 170.846 13.5523 171.196 13.6876C171.802 13.9032 172.38 13.8242 173.024 13.5069C172.932 13.9062 172.863 14.2196 172.783 14.5051C172.012 14.7128 171.278 14.7813 170.507 14.5338C169.817 14.3025 169.257 13.7036 169.211 13.0571C169.055 12.0195 169.569 10.9576 170.617 10.4705C171.591 10.0478 172.702 10.1211 173.731 10.3769Z" fill="white"/>
<path id="Fill 385" fill-rule="evenodd" clip-rule="evenodd" d="M184.638 14.0654C184.434 14.2619 184.088 14.6919 183.149 14.6919C182.293 14.6919 181.749 14.0834 182.053 12.7164L182.407 11.1074H183.713C183.713 11.1074 183.359 12.7178 183.359 12.7164C183.238 13.2639 183.267 13.6805 183.844 13.6805C184.523 13.6805 184.726 13.2843 184.854 12.7164C184.854 12.7174 185.209 11.1074 185.209 11.1074H186.515L185.928 13.6941C185.862 13.9973 185.798 14.3186 185.761 14.6359H184.535C184.535 14.6359 184.613 14.2047 184.638 14.0654Z" fill="white"/>
<path id="Fill 386" fill-rule="evenodd" clip-rule="evenodd" d="M186.948 12.2234C186.948 12.6709 187.253 12.9767 187.945 13.205C188.48 13.3852 188.563 13.4382 188.563 13.5946C188.563 13.8181 188.324 13.9129 187.81 13.9129C187.418 13.9129 187.053 13.875 186.632 13.7771C186.632 13.7771 186.466 14.5086 186.449 14.5925C186.816 14.6554 187.45 14.6921 187.819 14.6921C189.201 14.6921 189.843 14.3196 189.843 13.5149C189.843 13.0335 189.574 12.7505 188.918 12.5334C188.365 12.358 188.303 12.3172 188.303 12.1501C188.303 11.9627 188.522 11.8634 188.947 11.8634C189.203 11.8634 189.561 11.8843 189.894 11.9177L190.077 11.0989C189.738 11.0599 189.22 11.0286 188.921 11.0286C187.454 11.0286 186.943 11.5737 186.948 12.2234Z" fill="white"/>
<path id="Fill 387" fill-rule="evenodd" clip-rule="evenodd" d="M174.286 11.1074H175.596L174.817 14.6359H173.507L174.286 11.1074Z" fill="white"/>
<path id="Fill 388" fill-rule="evenodd" clip-rule="evenodd" d="M182.035 11.0924C181.072 10.9695 180.797 11.4262 180.538 11.6532C180.569 11.4695 180.626 11.2901 180.614 11.1074H179.416C179.243 12.1998 178.937 13.3054 178.697 14.3984L178.634 14.6354H179.998C180.161 13.9189 180.349 12.8372 180.566 12.51C180.784 12.1827 181.145 11.9215 181.619 12.0788L182.035 11.0924Z" fill="white"/>
<path id="Fill 389" fill-rule="evenodd" clip-rule="evenodd" d="M179.056 11.0924C178.092 10.9695 177.817 11.4262 177.558 11.6532C177.589 11.4695 177.646 11.2901 177.635 11.1074H176.437C176.264 12.1998 175.958 13.3054 175.718 14.3984L175.655 14.6354H177.019C177.181 13.9189 177.37 12.8372 177.587 12.51C177.804 12.1827 178.166 11.9215 178.64 12.0788L179.056 11.0924Z" fill="white"/>
</g>
<g id="Maestro-light">
<rect id="Rectangle_3" x="105" width="43" height="25.0498" rx="4" fill="white"/>
<path id="Fill 356" fill-rule="evenodd" clip-rule="evenodd" d="M140.972 12.5181C140.972 17.1337 137.134 20.8749 132.398 20.8749C127.664 20.8749 123.825 17.1337 123.825 12.5181C123.825 7.90243 127.664 4.16113 132.398 4.16113C137.134 4.16113 140.972 7.90243 140.972 12.5181Z" fill="#CC0000"/>
<path id="Fill 357" fill-rule="evenodd" clip-rule="evenodd" d="M125.775 17.8251C125.539 17.5452 125.321 17.2495 125.122 16.94H128.161C128.343 16.6563 128.508 16.3607 128.655 16.055H124.629C124.491 15.7687 124.369 15.4734 124.266 15.1703H129.017C129.304 14.3369 129.458 13.4455 129.458 12.5181C129.458 11.9109 129.392 11.3187 129.266 10.7484H124.018C124.084 10.4469 124.168 10.1519 124.267 9.86347H129.017C128.913 9.56038 128.791 9.26521 128.654 8.9789H124.629C124.776 8.67316 124.941 8.37813 125.123 8.09379H128.16C127.962 7.78502 127.743 7.48985 127.507 7.20961H125.776C126.043 6.89463 126.332 6.59894 126.642 6.32516C125.12 4.98034 123.1 4.16113 120.885 4.16113C116.149 4.16113 112.311 7.90243 112.311 12.5181C112.311 17.1337 116.149 20.8749 120.885 20.8749C123.1 20.8749 125.12 20.0557 126.642 18.7114C126.952 18.4371 127.242 18.1407 127.508 17.8251H125.775Z" fill="#0066CC"/>
<path id="Fill 359" fill-rule="evenodd" clip-rule="evenodd" d="M126.52 14.7764C126.153 14.8709 125.799 14.9172 125.424 14.9164C124.229 14.9153 123.607 14.3848 123.607 13.3703C123.607 12.185 124.399 11.3132 125.475 11.3132C126.354 11.3132 126.916 11.802 126.916 12.5679C126.916 12.8219 126.878 13.0696 126.785 13.4195H124.66C124.584 13.9151 124.955 14.1326 125.587 14.1326C125.966 14.1326 126.308 14.0663 126.687 13.9177L126.52 14.7764ZM125.948 12.7205C125.948 12.6458 126.066 12.1138 125.451 12.1023C125.112 12.1023 124.868 12.3223 124.77 12.7205H125.948Z" fill="#000066"/>
<path id="Fill 360" fill-rule="evenodd" clip-rule="evenodd" d="M127.24 12.4881C127.24 12.9259 127.492 13.2284 128.067 13.4536C128.507 13.629 128.576 13.6798 128.576 13.8366C128.576 14.0539 128.382 14.1534 127.951 14.1508C127.627 14.1485 127.331 14.1101 126.983 14.0159L126.828 14.8146C127.138 14.8847 127.573 14.9077 127.958 14.9164C129.106 14.9164 129.636 14.5502 129.636 13.7585C129.636 13.2826 129.415 13.0027 128.87 12.7941C128.414 12.6166 128.361 12.5784 128.361 12.4177C128.361 12.2291 128.541 12.1337 128.893 12.1337C129.107 12.1337 129.399 12.1527 129.676 12.1855L129.831 11.3825C129.549 11.3444 129.121 11.3137 128.872 11.3137C127.657 11.3137 127.236 11.8471 127.24 12.4881Z" fill="#000066"/>
<path id="Fill 361" fill-rule="evenodd" clip-rule="evenodd" d="M123.024 14.8592H122.133L122.154 14.4952C121.882 14.7823 121.52 14.9161 121.029 14.9161C120.447 14.9161 120.049 14.5285 120.049 13.971C120.049 13.1237 120.741 12.6349 121.932 12.6349C122.054 12.6349 122.21 12.6439 122.37 12.6615C122.403 12.548 122.412 12.4992 122.412 12.4376C122.412 12.2057 122.225 12.1203 121.724 12.1203C121.23 12.1221 120.896 12.1936 120.587 12.2745L120.739 11.4972C121.274 11.3646 121.624 11.3132 122.021 11.3132C122.943 11.3132 123.43 11.6658 123.43 12.328C123.437 12.5049 123.374 12.8596 123.343 13.0149C123.307 13.2406 123.051 14.5502 123.024 14.8592ZM122.242 13.3132C122.129 13.3024 122.08 13.2991 122.002 13.2991C121.394 13.2991 121.086 13.4755 121.086 13.8238C121.086 14.0425 121.236 14.1792 121.471 14.1792C121.908 14.1792 122.223 13.823 122.242 13.3132Z" fill="#000066"/>
<path id="Fill 362" fill-rule="evenodd" clip-rule="evenodd" d="M131.514 14.8042C131.222 14.8822 130.994 14.9163 130.747 14.9163C130.201 14.9163 129.903 14.6443 129.903 14.1598C129.886 14.0267 130.019 13.4118 130.049 13.2405C130.08 13.0687 130.553 10.564 130.553 10.564H131.614L131.453 11.3928H131.997L131.85 12.2384H131.303C131.303 12.2384 131.003 13.7066 131.003 13.8189C131.003 13.9967 131.114 14.0741 131.368 14.0741C131.489 14.0741 131.583 14.063 131.655 14.0419L131.514 14.8042Z" fill="#000066"/>
<path id="Fill 363" fill-rule="evenodd" clip-rule="evenodd" d="M136.255 11.3133C135.477 11.3133 134.87 11.6256 134.517 12.1465L134.823 11.3737C134.259 11.1717 133.895 11.46 133.566 11.8697C133.566 11.8697 133.511 11.9377 133.456 11.9999V11.3926H132.459C132.324 12.4645 132.086 13.5517 131.899 14.6261L131.854 14.8597H132.926C133.028 14.3145 133.111 13.8721 133.194 13.5192C133.422 12.5512 133.805 12.2553 134.38 12.3864C134.248 12.6643 134.175 12.9866 134.175 13.343C134.175 14.2085 134.657 14.9165 135.854 14.9165C137.062 14.9165 137.937 14.2876 137.937 12.8535C137.937 11.9886 137.354 11.3133 136.255 11.3133ZM135.943 14.0753C135.565 14.081 135.335 13.7714 135.335 13.3081C135.335 12.7593 135.67 12.1389 136.208 12.1389C136.642 12.1389 136.791 12.4745 136.791 12.832C136.791 13.6128 136.463 14.0753 135.943 14.0753Z" fill="#000066"/>
<path id="Fill 364" fill-rule="evenodd" clip-rule="evenodd" d="M119.549 14.8598H118.482L119.116 11.6025L117.656 14.8598H116.683L116.505 11.6216L115.869 14.8598H114.901L115.725 10.6228H117.393L117.532 12.9848L118.589 10.6228H120.391L119.549 14.8598Z" fill="#000066"/>
<path id="Fill 366" fill-rule="evenodd" clip-rule="evenodd" d="M126.787 14.5153C126.421 14.61 126.067 14.6562 125.692 14.6554C124.497 14.6544 123.875 14.1237 123.875 13.1093C123.875 11.924 124.667 11.0522 125.742 11.0522C126.622 11.0522 127.184 11.541 127.184 12.3067C127.184 12.5608 127.146 12.8079 127.053 13.1586H124.928C124.852 13.6536 125.223 13.8715 125.855 13.8715C126.233 13.8715 126.576 13.8052 126.955 13.6563L126.787 14.5153ZM126.216 12.4595C126.216 12.3847 126.334 11.8528 125.719 11.8412C125.38 11.8412 125.136 12.0612 125.037 12.4595H126.216Z" fill="white"/>
<path id="Fill 367" fill-rule="evenodd" clip-rule="evenodd" d="M127.508 12.2269C127.508 12.6649 127.76 12.9672 128.335 13.1926C128.775 13.3681 128.844 13.4188 128.844 13.5752C128.844 13.7928 128.65 13.8924 128.219 13.8899C127.895 13.8875 127.599 13.8491 127.251 13.7549L127.096 14.5533C127.406 14.6237 127.841 14.6466 128.226 14.6555C129.374 14.6555 129.904 14.2891 129.904 13.4973C129.904 13.0216 129.683 12.7415 129.138 12.5331C128.682 12.3557 128.629 12.317 128.629 12.1568C128.629 11.9682 128.809 11.8725 129.161 11.8725C129.374 11.8725 129.666 11.8919 129.944 11.9246L130.099 11.1217C129.817 11.083 129.388 11.0527 129.141 11.0527C127.925 11.0527 127.504 11.5859 127.508 12.2269Z" fill="white"/>
<path id="Fill 368" fill-rule="evenodd" clip-rule="evenodd" d="M123.292 14.5981H122.401L122.422 14.2341C122.15 14.521 121.788 14.6546 121.297 14.6546C120.715 14.6546 120.316 14.2671 120.316 13.7097C120.316 12.8626 121.009 12.3738 122.2 12.3738C122.322 12.3738 122.478 12.3829 122.638 12.3998C122.671 12.2867 122.68 12.2382 122.68 12.1765C122.68 11.9441 122.493 11.859 121.992 11.859C121.498 11.861 121.164 11.9325 120.855 12.0136L121.007 11.2361C121.542 11.1035 121.892 11.0522 122.289 11.0522C123.211 11.0522 123.698 11.4045 123.698 12.0669C123.706 12.2439 123.642 12.5979 123.611 12.7538C123.574 12.9795 123.319 14.289 123.292 14.5981ZM122.51 13.0523C122.397 13.0409 122.348 13.038 122.27 13.038C121.662 13.038 121.354 13.2142 121.354 13.5622C121.354 13.7813 121.505 13.9182 121.739 13.9182C122.176 13.9182 122.491 13.5616 122.51 13.0523Z" fill="white"/>
<path id="Fill 369" fill-rule="evenodd" clip-rule="evenodd" d="M131.782 14.5432C131.489 14.6214 131.262 14.6555 131.015 14.6555C130.469 14.6555 130.171 14.3833 130.171 13.8989C130.154 13.7657 130.287 13.1508 130.317 12.9795C130.348 12.8077 130.821 10.303 130.821 10.303H131.881L131.721 11.1316H132.265L132.117 11.9774H131.571C131.571 11.9774 131.271 13.4456 131.271 13.5573C131.271 13.7359 131.381 13.8127 131.636 13.8127C131.757 13.8127 131.851 13.8022 131.924 13.7808L131.782 14.5432Z" fill="white"/>
<path id="Fill 370" fill-rule="evenodd" clip-rule="evenodd" d="M137.059 12.5703C137.059 13.3518 136.73 13.8143 136.211 13.8143C135.832 13.8195 135.603 13.5104 135.603 13.0471C135.603 12.4982 135.938 11.8778 136.476 11.8778C136.91 11.8778 137.059 12.2134 137.059 12.5703ZM138.204 12.5923C138.204 11.7275 137.621 11.0522 136.523 11.0522C135.26 11.0522 134.443 11.8729 134.443 13.0819C134.443 13.9472 134.925 14.6554 136.122 14.6554C137.33 14.6554 138.204 14.0265 138.204 12.5923Z" fill="white"/>
<path id="Fill 371" fill-rule="evenodd" clip-rule="evenodd" d="M132.727 11.1313C132.592 12.2035 132.354 13.2906 132.167 14.3648L132.122 14.5988H133.194C133.58 12.5239 133.71 11.9329 134.519 12.1409L134.908 11.1593C134.344 10.9574 133.98 11.2458 133.651 11.6557C133.681 11.4712 133.737 11.2931 133.724 11.1313H132.727Z" fill="white"/>
<path id="Fill 372" fill-rule="evenodd" clip-rule="evenodd" d="M119.817 14.5987H118.75L119.384 11.3414L117.924 14.5987H116.951L116.773 11.3604L116.137 14.5987H115.168L115.993 10.3616H117.661L117.749 12.9847L118.923 10.3616H120.659L119.817 14.5987Z" fill="white"/>
</g>
<g id="MasterCard-light">
<rect id="Rectangle_4" x="53" width="43" height="25.0498" rx="4" fill="white"/>
<path id="Fill 333" fill-rule="evenodd" clip-rule="evenodd" d="M77.1353 12.7276C77.1353 17.2275 73.3786 20.8749 68.744 20.8749C64.1094 20.8749 60.3524 17.2275 60.3524 12.7276C60.3524 8.22786 64.1094 4.58008 68.744 4.58008C73.3786 4.58008 77.1353 8.22786 77.1353 12.7276Z" fill="#CC0000"/>
<path id="Fill 334" fill-rule="evenodd" clip-rule="evenodd" d="M80.0101 4.58008C77.8413 4.58008 75.8659 5.37875 74.3764 6.68897C74.0734 6.95601 73.7906 7.24442 73.5294 7.5515H75.2249C75.4564 7.82524 75.6698 8.11301 75.8646 8.41442H72.8896C72.7116 8.69138 72.5498 8.97915 72.4061 9.27735H76.3479C76.4826 9.55662 76.6011 9.84426 76.7033 10.1399H72.0507C71.9539 10.4208 71.8722 10.7087 71.8069 11.0023H76.9467C77.0698 11.5585 77.1353 12.1356 77.1353 12.7276C77.1353 13.6321 76.9835 14.5028 76.7033 15.3159H72.0507C72.1528 15.6112 72.2714 15.8993 72.4058 16.1789H76.3479C76.2038 16.4763 76.0428 16.7644 75.8638 17.0417H72.8896C73.0836 17.3422 73.2974 17.6304 73.5294 17.9037H75.2244C74.9638 18.2111 74.6807 18.4995 74.3767 18.7665C75.8661 20.0767 77.8413 20.8749 80.0101 20.8749C84.6445 20.8749 88.4014 17.2275 88.4014 12.7276C88.4014 8.22824 84.6445 4.58008 80.0101 4.58008Z" fill="#FF9900"/>
<path id="Fill 336" fill-rule="evenodd" clip-rule="evenodd" d="M66.7844 13.6196C66.6888 13.609 66.6466 13.6057 66.581 13.6057C66.0646 13.6057 65.8035 13.7777 65.8035 14.1175C65.8035 14.3267 65.9309 14.4597 66.1298 14.4597C66.501 14.4597 66.7685 14.1167 66.7844 13.6196ZM67.4471 15.1171C67.3256 15.1171 66.692 15.1171 66.692 15.1171L66.7094 14.7688C66.4791 15.0439 66.1719 15.1752 65.7546 15.1752C65.261 15.1752 64.9224 14.801 64.9224 14.2573C64.9224 13.4388 65.5111 12.9615 66.5217 12.9615C66.6253 12.9615 66.7576 12.9708 66.8932 12.9874C66.9213 12.8764 66.9287 12.8293 66.9287 12.7694C66.9287 12.5469 66.7701 12.4635 66.3445 12.4635C65.8988 12.4591 65.5312 12.5669 65.3802 12.615C65.3897 12.5591 65.5066 11.8591 65.5066 11.8591C65.9604 11.7296 66.2598 11.6812 66.5968 11.6812C67.3792 11.6812 67.7936 12.0221 67.7927 12.6666C67.7943 12.8396 67.7647 13.0521 67.7189 13.3326C67.6399 13.8193 67.4702 14.8631 67.4471 15.1171Z" fill="#000066"/>
<path id="Fill 337" fill-rule="evenodd" clip-rule="evenodd" d="M64.5412 15.1171H63.63L64.1522 11.9404L62.9867 15.1171H62.3659L62.2892 11.9582L61.7407 15.1171H60.888L61.6003 10.9844H62.9103L62.9895 13.2976L63.7887 10.9844H65.2457L64.5412 15.1171Z" fill="#000066"/>
<path id="Fill 338" fill-rule="evenodd" clip-rule="evenodd" d="M81.1357 13.6196C81.0401 13.609 80.9984 13.6057 80.9329 13.6057C80.4161 13.6057 80.1553 13.7777 80.1553 14.1175C80.1553 14.3267 80.2822 14.4597 80.4816 14.4597C80.8526 14.4597 81.1202 14.1167 81.1357 13.6196ZM81.7987 15.1171C81.677 15.1171 81.0439 15.1171 81.0439 15.1171L81.061 14.7688C80.8308 15.0439 80.5237 15.1752 80.1066 15.1752C79.6124 15.1752 79.2742 14.801 79.2742 14.2573C79.2742 13.4388 79.8631 12.9615 80.8735 12.9615C80.9769 12.9615 81.109 12.9708 81.2447 12.9874C81.2729 12.8764 81.2802 12.8293 81.2802 12.7694C81.2802 12.5469 81.1216 12.4635 80.6961 12.4635C80.2504 12.4591 79.8829 12.5669 79.7313 12.615C79.7414 12.5591 79.8585 11.8591 79.8585 11.8591C80.312 11.7296 80.6117 11.6812 80.9482 11.6812C81.7311 11.6812 82.145 12.0221 82.1442 12.6666C82.1458 12.8396 82.1164 13.0521 82.0704 13.3326C81.9917 13.8193 81.8215 14.8631 81.7987 15.1171Z" fill="#000066"/>
<path id="Fill 339" fill-rule="evenodd" clip-rule="evenodd" d="M71.4957 15.066C71.2463 15.1423 71.052 15.1752 70.8411 15.1752C70.3755 15.1752 70.1213 14.9154 70.1213 14.4368C70.1148 14.2882 70.1883 13.8975 70.2461 13.5411C70.2989 13.227 70.6413 11.2476 70.6413 11.2476H71.5466L71.4409 11.7563H71.988L71.8645 12.5641H71.3156C71.2105 13.2031 71.0605 13.9993 71.0588 14.1049C71.0588 14.2782 71.154 14.3539 71.3708 14.3539C71.4746 14.3539 71.555 14.3436 71.6164 14.3222L71.4957 15.066Z" fill="#000066"/>
<path id="Fill 340" fill-rule="evenodd" clip-rule="evenodd" d="M74.2721 15.0389C73.961 15.1312 73.6611 15.1763 73.343 15.1752C72.3292 15.174 71.8007 14.6602 71.8007 13.6759C71.8007 12.5271 72.4729 11.6812 73.3857 11.6812C74.1322 11.6812 74.6092 12.1547 74.6092 12.8971C74.6092 13.144 74.5766 13.3845 74.4974 13.7239H72.6941C72.6333 14.2115 72.9545 14.4145 73.4816 14.4145C73.8053 14.4145 74.0978 14.3497 74.4229 14.2033L74.2721 15.0389ZM73.7631 13.0465C73.7683 12.9764 73.859 12.4465 73.3414 12.4465C73.0534 12.4465 72.8469 12.66 72.7632 13.0465H73.7631Z" fill="#000066"/>
<path id="Fill 341" fill-rule="evenodd" clip-rule="evenodd" d="M67.9934 12.8188C67.9934 13.2436 68.2056 13.5368 68.687 13.7571C69.0558 13.9256 69.1132 13.9755 69.1132 14.128C69.1132 14.3373 68.9504 14.4323 68.59 14.4323C68.3181 14.4323 68.0653 14.3908 67.7737 14.2993C67.7737 14.2993 67.6542 15.0404 67.6485 15.0758C67.8555 15.1193 68.0401 15.1599 68.5965 15.1752C69.5577 15.1752 70.0017 14.8198 70.0017 14.0518C70.0017 13.5901 69.816 13.3191 69.3596 13.1151C68.9778 12.945 68.9336 12.9069 68.9336 12.7501C68.9336 12.5684 69.0852 12.4756 69.3795 12.4756C69.5584 12.4756 69.8025 12.4941 70.0342 12.5259L70.1638 11.7464C69.928 11.71 69.5702 11.6812 69.362 11.6812C68.343 11.6812 67.9901 12.1978 67.9934 12.8188Z" fill="#000066"/>
<path id="Fill 342" fill-rule="evenodd" clip-rule="evenodd" d="M78.7028 11.7699C78.9558 11.7699 79.1921 11.8338 79.5169 11.9931L79.6661 11.0962C79.5321 11.0452 79.0626 10.7463 78.6647 10.7463C78.0552 10.7463 77.5394 11.0404 77.1772 11.5247C76.6484 11.3547 76.4307 11.6982 76.1645 12.0407L75.9277 12.0943C75.9456 11.9816 75.962 11.8697 75.9568 11.7563H75.1197C75.0057 12.7968 74.8032 13.8502 74.6447 14.8911L74.6032 15.1172H75.5147C75.6668 14.1575 75.7499 13.5432 75.8006 13.127L76.1438 12.9424C76.1954 12.7569 76.3554 12.6945 76.6774 12.7021C76.6354 12.9213 76.6125 13.1521 76.6125 13.391C76.6125 14.4907 77.2244 15.1753 78.2047 15.1753C78.4573 15.1753 78.6743 15.1431 79.0102 15.0542L79.1698 14.1125C78.8678 14.2566 78.6204 14.3244 78.3962 14.3244C77.8665 14.3244 77.546 13.9447 77.546 13.3176C77.546 12.4074 78.0223 11.7699 78.7028 11.7699Z" fill="#000066"/>
<path id="Fill 343" fill-rule="evenodd" clip-rule="evenodd" d="M86.4158 10.9844L86.2133 12.1783C85.9646 11.8602 85.697 11.6297 85.3437 11.6297C84.8841 11.6297 84.4657 11.9681 84.1917 12.4664C83.8102 12.3895 83.4159 12.2588 83.4159 12.2588L83.4157 12.262C83.446 11.9835 83.4589 11.8141 83.4559 11.7561H82.6189C82.5053 12.7966 82.3025 13.8501 82.1442 14.891L82.1023 15.1171H83.014C83.1371 14.3414 83.2311 13.6966 83.3004 13.186C83.6121 12.9125 83.768 12.6747 84.0822 12.6901C83.9428 13.0174 83.8615 13.3942 83.8615 13.7807C83.8615 14.6206 84.2989 15.1751 84.9614 15.1751C85.2953 15.1751 85.5515 15.0633 85.8014 14.8042L85.7584 15.1168H86.6204L87.3143 10.9844H86.4158ZM85.2765 14.3406C84.9665 14.3406 84.8094 14.1174 84.8094 13.6781C84.8094 13.0174 85.1029 12.5491 85.516 12.5491C85.8291 12.5491 85.9988 12.7804 85.9988 13.2073C85.9988 13.8736 85.7005 14.3406 85.2765 14.3406Z" fill="#000066"/>
<path id="Fill 344" fill-rule="evenodd" clip-rule="evenodd" d="M64.8032 14.8718H63.8923L64.4144 11.6951L63.2491 14.8718H62.6281L62.5515 11.7135L62.0028 14.8718H61.1501L61.8624 10.7395H63.1725L63.2091 13.2976L64.0931 10.7395H65.5079L64.8032 14.8718Z" fill="white"/>
<path id="Fill 345" fill-rule="evenodd" clip-rule="evenodd" d="M67.0466 13.3747C66.9511 13.3639 66.9089 13.361 66.8433 13.361C66.3269 13.361 66.0657 13.5327 66.0657 13.8722C66.0657 14.0812 66.1932 14.215 66.3923 14.215C66.7633 14.215 67.0308 13.872 67.0466 13.3747ZM67.7092 14.8718C67.5878 14.8718 66.9545 14.8718 66.9545 14.8718L66.9717 14.5238C66.7415 14.7987 66.4342 14.9301 66.0169 14.9301C65.5232 14.9301 65.1848 14.5554 65.1848 14.0118C65.1848 13.1932 65.7735 12.7165 66.7842 12.7165C66.8875 12.7165 67.0198 12.7257 67.1555 12.7427C67.1836 12.6314 67.191 12.5842 67.191 12.524C67.191 12.3017 67.0324 12.2189 66.6069 12.2189C66.161 12.2137 65.7936 12.3215 65.6424 12.3695C65.6521 12.3139 65.7688 11.6139 65.7688 11.6139C66.2227 11.4846 66.5221 11.4358 66.8591 11.4358C67.6414 11.4358 68.0557 11.7771 68.055 12.4214C68.0565 12.5941 68.0272 12.8077 67.9813 13.0874C67.9021 13.5737 67.7324 14.6181 67.7092 14.8718Z" fill="white"/>
<path id="Fill 346" fill-rule="evenodd" clip-rule="evenodd" d="M79.9281 10.8509L79.7789 11.7477C79.4536 11.5889 79.218 11.5246 78.9652 11.5246C78.2851 11.5246 77.8079 12.1629 77.8079 13.0732C77.8079 13.7004 78.1286 14.0793 78.6582 14.0793C78.8826 14.0793 79.1304 14.012 79.4319 13.8674L79.2718 14.8091C78.9364 14.8978 78.7194 14.9302 78.4669 14.9302C77.4859 14.9302 76.875 14.2455 76.875 13.1461C76.875 11.6687 77.7196 10.6362 78.9269 10.6362C79.3247 10.6362 79.7946 10.7999 79.9281 10.8509Z" fill="white"/>
<path id="Fill 347" fill-rule="evenodd" clip-rule="evenodd" d="M81.3977 13.3747C81.3028 13.3639 81.2604 13.361 81.1949 13.361C80.6788 13.361 80.4174 13.5327 80.4174 13.8722C80.4174 14.0812 80.5449 14.215 80.7438 14.215C81.1147 14.215 81.3825 13.872 81.3977 13.3747ZM82.0608 14.8718C81.9396 14.8718 81.3061 14.8718 81.3061 14.8718L81.3232 14.5238C81.093 14.7987 80.7857 14.9301 80.3688 14.9301C79.8745 14.9301 79.5365 14.5554 79.5365 14.0118C79.5365 13.1932 80.1248 12.7165 81.1357 12.7165C81.239 12.7165 81.3711 12.7257 81.5066 12.7427C81.5348 12.6314 81.5423 12.5842 81.5423 12.524C81.5423 12.3017 81.384 12.2189 80.9582 12.2189C80.5128 12.2137 80.1455 12.3215 79.994 12.3695C80.0036 12.3139 80.1204 11.6139 80.1204 11.6139C80.5743 11.4846 80.8735 11.4358 81.2105 11.4358C81.9927 11.4358 82.4074 11.7771 82.4064 12.4214C82.4082 12.5941 82.3786 12.8077 82.3328 13.0874C82.2538 13.5737 82.0841 14.6181 82.0608 14.8718Z" fill="white"/>
<path id="Fill 348" fill-rule="evenodd" clip-rule="evenodd" d="M71.7578 14.8209C71.5086 14.8971 71.3141 14.9302 71.1035 14.9302C70.6377 14.9302 70.3834 14.6703 70.3834 14.1922C70.377 14.0431 70.4506 13.653 70.5086 13.2962C70.561 12.9819 70.9035 11.0027 70.9035 11.0027H71.8091L71.7031 11.5113H72.1681L72.0442 12.3188H71.5778C71.4727 12.9585 71.3227 13.7542 71.3208 13.8598C71.3208 14.0336 71.4164 14.1088 71.633 14.1088C71.7368 14.1088 71.8171 14.0989 71.8787 14.077L71.7578 14.8209Z" fill="white"/>
<path id="Fill 349" fill-rule="evenodd" clip-rule="evenodd" d="M74.5346 14.7941C74.2234 14.8867 73.9229 14.9304 73.6052 14.9301C72.5912 14.9295 72.0632 14.4151 72.0632 13.4309C72.0632 12.2817 72.7352 11.4358 73.6473 11.4358C74.3946 11.4358 74.8713 11.9094 74.8713 12.6527C74.8713 12.899 74.8382 13.1394 74.7599 13.4789H72.9564C72.8953 13.9665 73.2169 14.1699 73.7435 14.1699C74.0675 14.1699 74.3599 14.1048 74.6853 13.958L74.5346 14.7941ZM74.0256 12.8011C74.0305 12.7308 74.1216 12.2013 73.6041 12.2013C73.3158 12.2013 73.1093 12.4151 73.0254 12.8011H74.0256Z" fill="white"/>
<path id="Fill 350" fill-rule="evenodd" clip-rule="evenodd" d="M68.2555 12.5735C68.2555 12.999 68.4679 13.2916 68.9494 13.5121C69.3182 13.6805 69.3754 13.7304 69.3754 13.8831C69.3754 14.0926 69.2127 14.1871 68.8521 14.1871C68.5804 14.1871 68.3275 14.1461 68.0357 14.0548C68.0357 14.0548 67.9164 14.7954 67.9108 14.8303C68.1177 14.8744 68.3024 14.9145 68.8586 14.9301C69.82 14.9301 70.264 14.5749 70.264 13.8068C70.264 13.3449 70.0781 13.074 69.6218 12.8705C69.2399 12.6999 69.196 12.6622 69.196 12.5051C69.196 12.3234 69.3474 12.23 69.6419 12.23C69.8204 12.23 70.0649 12.2493 70.2964 12.2809L70.4261 11.5016C70.1902 11.4654 69.8326 11.4358 69.6243 11.4358C68.6051 11.4358 68.2524 11.9526 68.2555 12.5735Z" fill="white"/>
<path id="Fill 351" fill-rule="evenodd" clip-rule="evenodd" d="M86.8825 14.8718H86.0208L86.0635 14.559C85.8135 14.8182 85.5575 14.9301 85.2236 14.9301C84.5616 14.9301 84.1235 14.3762 84.1235 13.5354C84.1235 12.4176 84.8026 11.4753 85.6059 11.4753C85.9592 11.4753 86.2266 11.6154 86.4758 11.9337L86.6779 10.7395H87.5764L86.8825 14.8718ZM85.5385 14.0953C85.963 14.0953 86.2609 13.6285 86.2609 12.9629C86.2609 12.5358 86.0913 12.3037 85.7782 12.3037C85.3649 12.3037 85.0716 12.7722 85.0716 13.4331C85.0716 13.8729 85.2287 14.0953 85.5385 14.0953Z" fill="white"/>
<path id="Fill 352" fill-rule="evenodd" clip-rule="evenodd" d="M82.8814 11.5112C82.7675 12.5514 82.5648 13.6049 82.4064 14.6459L82.3649 14.8719H83.276C83.602 12.8166 83.6804 12.4156 84.1917 12.4657C84.273 12.045 84.4246 11.6766 84.5374 11.491C84.1559 11.4137 83.9428 11.6231 83.6635 12.0209C83.6858 11.8488 83.726 11.6818 83.7184 11.5112H82.8814Z" fill="white"/>
<path id="Fill 353" fill-rule="evenodd" clip-rule="evenodd" d="M75.3823 11.5112C75.2679 12.5514 75.065 13.6049 74.9068 14.6459L74.8654 14.8719H75.7768C76.1029 12.8166 76.181 12.4156 76.6916 12.4657C76.7734 12.045 76.9253 11.6766 77.0378 11.491C76.6567 11.4137 76.4432 11.6231 76.1645 12.0209C76.1865 11.8488 76.2269 11.6818 76.219 11.5112H75.3823Z" fill="white"/>
</g>
<g id="Visa-light">
<rect id="Rectangle_5" width="43" height="25.0498" rx="4" fill="white"/>
<path id="Fill 1" fill-rule="evenodd" clip-rule="evenodd" d="M17.8407 16.5107L19.1628 8.54736H21.2762L19.9542 16.5107H17.8407Z" fill="#26337A"/>
<path id="Fill 2" fill-rule="evenodd" clip-rule="evenodd" d="M27.6201 8.74281C27.2023 8.58298 26.5451 8.40869 25.7264 8.40869C23.6369 8.40869 22.1661 9.48936 22.1539 11.0368C22.1406 12.1814 23.2034 12.8198 24.0047 13.2003C24.8283 13.5902 25.1049 13.8398 25.1017 14.1885C25.096 14.7218 24.4444 14.9662 23.8367 14.9662C22.9906 14.9662 22.541 14.8459 21.846 14.5486L21.5742 14.4218L21.2786 16.2043C21.7714 16.4262 22.685 16.6187 23.6332 16.6288C25.8538 16.6288 27.2967 15.5612 27.3136 13.9087C27.3212 13.001 26.758 12.313 25.5384 11.745C24.7998 11.3757 24.3466 11.1311 24.3518 10.7574C24.3522 10.4264 24.7347 10.0721 25.5625 10.0721C26.2537 10.0613 26.7542 10.2163 27.1441 10.3781L27.3339 10.4691L27.6201 8.74281Z" fill="#26337A"/>
<path id="Fill 3" fill-rule="evenodd" clip-rule="evenodd" d="M30.4343 13.6874C30.6094 13.2297 31.2761 11.4615 31.2761 11.4615C31.2638 11.4825 31.4503 11.0002 31.557 10.7017L31.6997 11.3885C31.6997 11.3885 32.1052 13.2893 32.1887 13.6874C31.8597 13.6874 30.8469 13.6874 30.4343 13.6874ZM33.0415 8.55542H31.4082C30.9016 8.55542 30.5225 8.69631 30.3005 9.21554L27.162 16.5135H29.3817C29.3817 16.5135 29.7439 15.5318 29.8261 15.3163C30.0682 15.3163 32.2251 15.3204 32.533 15.3204C32.5963 15.5983 32.7903 16.5135 32.7903 16.5135H34.7519L33.0415 8.55542Z" fill="#26337A"/>
<path id="Fill 4" fill-rule="evenodd" clip-rule="evenodd" d="M16.0677 8.55396L13.9991 13.9831L13.7776 12.8795C13.3921 11.6079 12.1922 10.2297 10.85 9.53913L12.7424 16.5037L14.9791 16.5024L18.3073 8.55396H16.0677Z" fill="#26337A"/>
<path id="Fill 5" fill-rule="evenodd" clip-rule="evenodd" d="M12.0789 8.54858H8.6708L8.64276 8.71358C11.2947 9.37323 13.0493 10.9655 13.7776 12.8795L13.037 9.22046C12.9092 8.71582 12.5379 8.56622 12.0789 8.54858Z" fill="#EC982D"/>
</g>
</g>
</svg>
